<?xml version="1.0" encoding="UTF-8" standalone="no"?>
<svg
   xmlns:dc="http://purl.org/dc/elements/1.1/"
   xmlns:cc="http://creativecommons.org/ns#"
   xmlns:rdf="http://www.w3.org/1999/02/22-rdf-syntax-ns#"
   xmlns:svg="http://www.w3.org/2000/svg"
   xmlns="http://www.w3.org/2000/svg"
   xmlns:sodipodi="http://sodipodi.sourceforge.net/DTD/sodipodi-0.dtd"
   xmlns:inkscape="http://www.inkscape.org/namespaces/inkscape"
   id="svg8"
   version="1.1"
   viewBox="0 0 143.70094 165.93155"
   height="165.93155mm"
   width="143.70094mm"
   sodipodi:docname="6+Hitch_logo.svg"
   inkscape:version="0.92.4 5da689c313, 2019-01-14">
  <sodipodi:namedview
     pagecolor="#ffffff"
     bordercolor="#666666"
     borderopacity="1"
     objecttolerance="10"
     gridtolerance="10"
     guidetolerance="10"
     inkscape:pageopacity="0"
     inkscape:pageshadow="2"
     inkscape:window-width="1920"
     inkscape:window-height="1007"
     id="namedview937"
     showgrid="false"
     inkscape:zoom="0.733172"
     inkscape:cx="395.31866"
     inkscape:cy="67.363503"
     inkscape:window-x="0"
     inkscape:window-y="42"
     inkscape:window-maximized="1"
     inkscape:current-layer="svg8" />
  <defs
     id="defs2">
    <filter
       id="filter926"
       style="color-interpolation-filters:sRGB">
      <feFlood
         id="feFlood916"
         result="flood"
         flood-color="rgb(0,0,0)"
         flood-opacity="0.498039" />
      <feComposite
         id="feComposite918"
         result="composite1"
         operator="in"
         in2="SourceGraphic"
         in="flood" />
      <feGaussianBlur
         id="feGaussianBlur920"
         result="blur"
         stdDeviation="0.4"
         in="composite1" />
      <feOffset
         id="feOffset922"
         result="offset"
         dy="0.4"
         dx="0.6" />
      <feComposite
         id="feComposite924"
         result="composite2"
         operator="over"
         in2="offset"
         in="SourceGraphic" />
    </filter>
    <filter
       id="filter882"
       style="color-interpolation-filters:sRGB">
      <feFlood
         id="feFlood872"
         result="flood"
         flood-color="rgb(0,0,0)"
         flood-opacity="0.498039" />
      <feComposite
         id="feComposite874"
         result="composite1"
         operator="in"
         in2="SourceGraphic"
         in="flood" />
      <feGaussianBlur
         id="feGaussianBlur876"
         result="blur"
         stdDeviation="0.4"
         in="composite1" />
      <feOffset
         id="feOffset878"
         result="offset"
         dy="0.4"
         dx="0.6" />
      <feComposite
         id="feComposite880"
         result="composite2"
         operator="over"
         in2="offset"
         in="SourceGraphic" />
    </filter>
  </defs>
  <metadata
     id="metadata5">
    <rdf:RDF>
      <cc:Work
         rdf:about="">
        <dc:format>image/svg+xml</dc:format>
        <dc:type
           rdf:resource="http://purl.org/dc/dcmitype/StillImage" />
        <dc:title />
      </cc:Work>
    </rdf:RDF>
  </metadata>
  <g
     id="layer1"
     transform="translate(-29.636135,-62.654764)">
    <g
       id="g1022">
      <path
         style="opacity:1;fill:#4d556b;fill-opacity:1;stroke:none;stroke-width:0.26499999;stroke-miterlimit:4;stroke-dasharray:none;stroke-opacity:1"
         id="path823"
         d="m 184.83035,197.0253 -41.48288,71.85047 H 60.381691 L 18.898804,197.0253 60.381691,125.17483 h 82.965779 z"
         transform="rotate(30,197.59818,170.61761)"
         inkscape:connector-curvature="0" />
      <path
         style="opacity:1;fill:#8cc9c7;fill-opacity:1;stroke:#252527;stroke-width:5.03505993;stroke-miterlimit:4;stroke-dasharray:none;stroke-opacity:1"
         id="path823-3"
         d="m 184.83035,197.0253 -41.48288,71.85047 H 60.381691 L 18.898804,197.0253 60.381691,125.17483 h 82.965779 z"
         transform="matrix(0.72306523,0.4174619,-0.4174619,0.72306523,110.08242,-39.366185)"
         inkscape:connector-curvature="0" />
      <g
         id="g967">
        <g
           transform="matrix(1,0,0,1.1424368,0.32740517,-27.350849)"
           id="g874">
          <g
             id="g867">
            <path
               style="fill:#d4b2ba;fill-opacity:1;stroke-width:0.10037898"
               d="m 93.64021,212.39528 c 0.05641,-0.16046 -0.341048,-36.32012 -0.431548,-37.45986 l -0.05205,-0.65547 -0.400675,2.1e-4 c -0.220375,1.1e-4 -2.194897,0.16585 -4.387829,0.36829 -5.362701,0.49504 -6.096021,0.51859 -11.817342,0.37953 l -4.947911,-0.12026 -0.935948,-0.0291 c 2.892646,-6.37014 2.540207,-6.95049 3.001624,-7.40677 -0.153713,-0.15983 -2.70516,-2.43614 -5.201306,-5.44372 -1.911049,-2.3026 -1.223527,-1.53614 1.28833,-2.47702 0.350535,-0.0806 14.845206,-1.80733 20.34192,-2.42332 1.347465,-0.151 2.48786,-0.31437 2.534209,-0.36303 0.186659,-0.19596 -0.399768,-15.4589 -0.608095,-15.82685 -0.110806,-0.1957 -11.028605,-1.97276 -15.987579,-2.60231 -2.762526,-0.35069 -6.373074,-1.16338 -12.793393,-2.52731 -3.83188,-0.81405 -5.389309,-1.66863 -6.015892,-1.9378 -1.057776,-0.4544 -9.311141,-5.60915 -11.88408,-7.42236 -0.29063,-0.20481 -0.560844,-0.36182 -0.600475,-0.34891 -0.03963,0.0129 -0.07206,-0.0552 -0.07206,-0.15132 0,-0.0961 0.02786,-0.14438 0.06191,-0.10721 0.03405,0.0372 0.240377,-0.24992 0.458503,-0.63798 0.280208,-0.49851 0.462724,-0.71588 0.621941,-0.7407 0.123942,-0.0193 1.117363,-0.54286 2.207604,-1.16342 1.090241,-0.62055 4.275965,-2.40841 7.079388,-3.97301 l 5.097132,-2.84474 4.942804,0.5216 c 12.998394,1.37168 17.213761,1.78592 23.162693,2.4895 1.752258,0.20724 2.412287,0.25098 2.490975,0.16509 0.07869,-0.0859 0.062,-0.9417 -0.06299,-3.22985 -0.09353,-1.71214 -0.191264,-3.17334 -0.217194,-3.24711 -0.05521,-0.15703 -0.0471,-1.12034 0.339697,-1.89794 9.635537,-0.72508 14.275157,-0.0169 19.874807,2.73816 l -0.13451,2.23798 -0.0634,1.97939 c -0.0826,2.58109 -0.0786,4.25636 0.0106,4.40942 0.11426,0.19606 0.41436,0.23203 2.90387,0.34807 5.05684,0.23572 6.2011,0.34388 21.08867,1.99339 12.98255,1.43844 13.52742,1.49289 14.69962,1.46893 0.52842,-0.0108 1.28502,-0.0271 1.68133,-0.0362 0.56517,-0.013 0.72057,0.0155 0.72057,0.13216 0,0.0818 -0.99533,1.19216 -2.21185,2.46742 l -2.21184,2.31866 -1.67362,0.93011 c -0.92048,0.51156 -1.7734,1.03906 -1.89539,1.17221 -0.19417,0.21196 -0.2218,0.3451 -0.2218,1.0691 0,1.56307 0.60113,3.33069 1.6836,4.95065 0.28908,0.43261 0.82747,1.2349 1.19643,1.78288 0.36896,0.54796 0.77983,1.29176 0.913,1.65288 0.21532,0.58377 0.24216,0.80685 0.24216,2.01201 0,0.74549 0.0422,1.4765 0.0937,1.62445 0.0935,0.26847 0.0926,0.26901 -0.43234,0.26901 -0.63001,0 -0.66167,0.11118 -0.16575,0.58205 l 0.36028,0.34209 -0.24019,0.0582 c -0.1321,0.032 -1.23457,0.17329 -2.44993,0.31398 -1.66575,0.19282 -2.36349,0.23347 -2.83425,0.16509 -0.34347,-0.0499 -4.58042,-0.61427 -9.41544,-1.25418 -4.83502,-0.63991 -11.73037,-1.56001 -15.32301,-2.04467 -3.59262,-0.48466 -6.56429,-0.84601 -6.6037,-0.80299 -0.0394,0.043 -0.10078,2.57786 -0.13639,5.63298 -0.0549,4.71063 -0.0442,5.57328 0.0705,5.67656 0.094,0.0846 0.28191,0.0944 0.61566,0.0321 0.26421,-0.0493 1.36668,-0.25713 2.44994,-0.46182 2.65462,-0.50159 3.97542,-0.67767 11.48107,-1.53053 9.17939,-1.04306 10.6726,-1.23889 11.33697,-1.48683 0.92463,-0.14593 0.87934,-0.0966 1.05083,0.0365 0.24684,0.19154 1.21319,1.49532 1.21319,1.49532 l 2.07273,1.73925 1.41751,1.10891 c 0.72189,0.82783 1.18692,0.99914 1.75269,1.63396 0.2901,0.42402 2.25579,1.64224 2.79674,2.45707 -0.74375,0.91137 -1.40259,1.21658 -2.22223,2.38891 -0.8225,1.04977 -2.76712,2.42017 -3.78237,3.77557 -0.53759,0.38887 -1.77189,2.07974 -2.76052,2.9073 -0.43344,0.30357 -0.55815,0.37827 -0.57887,0.40087 -0.0207,0.0226 -0.2466,0.0652 -0.87468,0.12276 -0.62808,0.0576 -2.61193,0.29038 -4.40855,0.51732 -7.21261,0.91104 -15.03334,1.83135 -19.10755,2.24849 -1.36753,0.14001 -2.52679,0.29863 -2.57614,0.35249 -0.0535,0.0584 -0.12493,4.8922 -0.17688,11.96461 l -0.37949,24.58285 -0.78291,2.90198 c -0.85713,0.53724 -0.71897,0.50359 -1.04784,0.70966 -0.12462,0.0781 0.11879,3.30662 -0.12041,3.30516 -5.32596,-0.41516 -9.844556,-3.00502 -13.435332,-3.85216 z"
               id="path1641"
               inkscape:connector-curvature="0" />
            <path
               transform="scale(0.26458333)"
               id="path862"
               d="m 409.33789,656.60352 -28.29758,1.01987 c -2.86678,0.067 -22.15588,1.07357 -28.85076,1.08421 0.20895,0.36907 1.25401,29.66216 2.8417,88.57951 0.20557,7.63026 0.13198,64.88789 0.25977,68.10351 0.17446,4.39012 0.12446,5.84766 -0.19922,5.84766 -0.23721,0 -0.35578,0.13322 -0.26368,0.29688 0.0921,0.16327 2.18428,0.21577 4.6504,0.11523 4.24943,-0.1734 4.34275,-0.19428 1.76171,-0.39648 -1.61507,-0.12654 7.47327,-0.67126 22.33204,-1.33789 13.78046,-0.61811 25.08304,-0.18864 25.11328,-0.22266 0.0321,-0.0358 0.32176,-2.42934 0.64453,-4.13867 0.5311,-2.81178 0.90033,-54.78463 0.57226,-86.04102 -0.19933,-19.00135 -0.40733,-43.37658 -0.46289,-54.16797 z"
               style="fill:#4d556b;fill-opacity:1;stroke-width:0.37938514"
               inkscape:connector-curvature="0" />
            <path
               transform="scale(0.26458333)"
               id="path860"
               d="m 348.60352,533.21289 c -0.0728,0.0794 0.19818,6.80727 0.60351,14.95117 0.40535,8.14394 0.92425,21.37981 1.15235,29.41406 0.34763,12.24125 0.33412,14.69301 -0.0801,15.13086 -0.32141,0.33975 -3.73261,0.88475 -9.75391,1.5586 -20.45894,2.28952 -75.61045,8.84544 -76.79883,9.1289 -8.01073,2.33005 -11.86564,0.48971 1.19532,14.86914 4.88136,5.37415 13.99981,14.10297 14.58203,14.71094 -2.72504,3.39304 -1.23166,6.98594 -5.07032,13.45899 l -6.16601,14.02148 21.05859,0.67188 c 21.7344,0.52596 24.91395,0.42425 44.84571,-1.4375 15.71539,-1.46793 24.45026,-1.90798 25.05416,-1.91531 l 22.26952,-1.43277 c 2.27425,-0.15243 25.75479,-1.2214 30.43513,-1.68853 0,0 5.93324,-0.91195 12.29392,-1.52003 12.15299,-1.16183 59.78317,-6.76461 80.61328,-9.48243 3.19548,-0.41692 7.11712,-0.8657 8.71484,-0.99609 1.59776,-0.13047 3.59191,-0.3296 4.43165,-0.44336 1.46369,-0.19812 8.00842,-6.05472 9.79882,-9.3457 2.50148,-4.11678 6.41056,-7.25117 12.33985,-12.3086 5.54067,-5.86439 4.01635,-6.07553 13.11718,-14.03711 -5.00715,-6.49183 -9.29806,-6.57876 -12.33007,-10.38086 -4.7057,-4.38878 -10.14314,-8.56269 -13.69922,-11.39843 -5.30362,-3.58995 -8.76941,-9.43697 -9.3086,-10.01758 -0.23871,-0.25701 -0.8446,-0.10864 -2.50586,0.11133 -2.95022,1.10585 -7.30156,1.68821 -41.7871,5.58789 -28.15314,3.18357 -34.88395,4.09161 -46.66016,6.30078 -7.67467,1.43973 -9.3844,1.65282 -9.98633,1.24414 -0.52331,-0.35528 -1.43591,-0.40533 -3.26758,-0.17969 -1.39804,0.17235 -3.15534,0.3207 -3.90429,0.33203 l -1.36133,0.0195 v -7.07031 c 0,-3.88845 -0.10795,-13.77931 -0.24024,-21.98047 -0.19166,-11.89757 -0.33908,-14.95309 -0.72656,-15.11523 -0.26706,-0.11187 -6.40845,-1.01904 -13.64844,-2.01563 -24.03488,-3.30841 -25.73711,-3.61302 -31.06445,-5.57421 -4.20869,-1.54935 -13.68627,-3.67425 -14.14648,-3.17188 z"
               style="fill:#4d556b;fill-opacity:1;stroke-width:0.37938514"
               inkscape:connector-curvature="0" />
          </g>
          <path
             style="fill:#4d556b;fill-opacity:1;stroke-width:0.37938514"
             d="m 360.60352,426.82031 c -6.21079,-0.007 -11.76479,0.28927 -15.83204,0.81641 0.124,3.25504 0.76532,15.48559 0.79102,18.70117 0.045,5.61226 0.0183,5.84766 -0.68359,5.84766 -0.40215,0 -1.02966,0.20248 -1.39453,0.45117 -0.50721,0.34575 -2.36547,0.24951 -7.89258,-0.4082 -20.93877,-2.49173 -42.07652,-3.60698 -89.83203,-8.64063 l -16.85547,-1.77539 -18.54883,10.34961 c -22.02711,12.28913 -35.14462,19.71487 -35.54688,20.12695 -0.49522,0.50725 34.3873,25.02723 47.62696,33.47852 4.42202,2.8227 5.09875,3.10164 9.67578,3.99414 1.79745,0.35051 13.56236,2.85491 26.14453,5.56445 24.14875,5.20037 26.95733,5.74573 34.49609,6.69141 2.59632,0.32568 10.19621,1.39246 16.88672,2.37109 24.37476,3.56531 36.94222,6.46559 45.17383,6.88281 10.98967,1.17215 41.29951,7.20136 48.63086,8.32032 18.96117,2.87497 56.20836,7.60848 121.82617,14.24023 8.58784,0.86793 21.87196,0.0558 23.86914,0.33399 h 0.002 c 2.8122,0.39193 7.91497,0.47838 8,0.13671 0.007,-0.0284 -0.0783,-2.90445 -0.18945,-6.39257 -0.18931,-5.93246 -0.26873,-6.4924 -1.23633,-8.66211 -0.56897,-1.27574 -2.89201,-5.02182 -5.16211,-8.32422 -6.23187,-9.06588 -8.46225,-14.52784 -8.76953,-21.47461 -0.17,-3.84344 -0.14485,-4.01522 0.77539,-5.20899 0.61142,-0.79317 2.7379,-2.18432 5.94532,-3.89062 2.74609,-1.4609 6.05536,-3.4328 7.35351,-4.38086 1.33637,-0.97595 5.59002,-5.27725 9.80469,-9.91602 l 7.44336,-8.19335 -3.8125,0.32421 c -6.94507,0.59037 -6.55052,0.62494 -60.82227,-5.38867 -56.12855,-6.2194 -58.8212,-6.47891 -75.89258,-7.32617 -12.8649,-0.63848 -14.23133,-0.78172 -15.07031,-1.58203 -0.31676,-0.30217 -3.36963,1.22144 -5.08398,-0.98633 -1.84804,-2.37985 1.44477,-21.68133 -0.50781,-25.79297 -8.12705,-7.50639 -32.68013,-10.26553 -51.3125,-10.28711 z"
             id="path1639"
             transform="scale(0.26458333)"
             inkscape:connector-curvature="0" />
        </g>
        <g
           transform="rotate(-1.4481346,93.608977,151.71496)"
           id="g924">
          <text
             xml:space="preserve"
             style="font-style:normal;font-variant:normal;font-weight:normal;font-stretch:normal;font-size:14.11111069px;line-height:1.25;font-family:'Liu Jian Mao Cao';-inkscape-font-specification:'Liu Jian Mao Cao';letter-spacing:0px;word-spacing:0px;fill:#f6f6f6;fill-opacity:1;stroke:none;stroke-width:0.26458332;filter:url(#filter926)"
             x="83.618378"
             y="102.92313"
             id="text878-3-7"
             transform="matrix(1.1146958,0.20536614,-0.20536614,1.1146958,-9.1065914,-10.352911)"><tspan
               id="tspan876-6-5"
               x="83.618378"
               y="102.92313"
               style="font-style:normal;font-variant:normal;font-weight:normal;font-stretch:normal;font-family:'Shadows Into Light';-inkscape-font-specification:'Shadows Into Light, ';letter-spacing:0.70029199px;fill:#f6f6f6;fill-opacity:1;stroke-width:0.26458332"
               dx="0"
               rotate="0 0 0 0 0 0 0 0 0 0 0 0">6 + a Hitch</tspan></text>
          <g
             id="g915">
            <text
               transform="rotate(10.43884)"
               id="text878"
               y="108.28518"
               x="83.851738"
               style="font-style:normal;font-variant:normal;font-weight:normal;font-stretch:normal;font-size:15.99431896px;line-height:1.25;font-family:'Liu Jian Mao Cao';-inkscape-font-specification:'Liu Jian Mao Cao';letter-spacing:0px;word-spacing:0px;fill:#f6f6f6;fill-opacity:1;stroke:none;stroke-width:0.29989347"
               xml:space="preserve"><tspan
                 rotate="0 0 0 0 0 0 0 0 0 0 0 0"
                 dx="0"
                 style="font-style:normal;font-variant:normal;font-weight:normal;font-stretch:normal;font-family:'Shadows Into Light';-inkscape-font-specification:'Shadows Into Light, ';letter-spacing:0.79374999px;fill:#f6f6f6;fill-opacity:1;stroke-width:0.29989347"
                 y="108.28518"
                 x="83.851738"
                 id="tspan876">6 + a Hitch</tspan></text>
            <text
               transform="rotate(10.43884)"
               id="text878-3"
               y="108.43835"
               x="84.110703"
               style="font-style:normal;font-variant:normal;font-weight:normal;font-stretch:normal;font-size:15.99431896px;line-height:1.25;font-family:'Liu Jian Mao Cao';-inkscape-font-specification:'Liu Jian Mao Cao';letter-spacing:0px;word-spacing:0px;fill:#f6f6f6;fill-opacity:1;stroke:none;stroke-width:0.29989347"
               xml:space="preserve"><tspan
                 rotate="0 0 0 0 0 0 0 0 0 0 0 0"
                 dx="0"
                 style="font-style:normal;font-variant:normal;font-weight:normal;font-stretch:normal;font-family:'Shadows Into Light';-inkscape-font-specification:'Shadows Into Light, ';letter-spacing:0.79374999px;word-spacing:-0.02910417px;fill:#f6f6f6;fill-opacity:1;stroke-width:0.29989347"
                 y="108.43835"
                 x="84.110703"
                 id="tspan876-6">6 + a Hitch</tspan></text>
          </g>
        </g>
        <g
           id="g942">
          <text
             transform="matrix(0.2801847,-0.044722,0.044722,0.2801847,-40.974346,7.4979745)"
             id="text1047"
             y="610.49786"
             x="320.75"
             style="font-style:normal;font-variant:normal;font-weight:normal;font-stretch:normal;font-size:37.33333206px;line-height:1;font-family:'Liu Jian Mao Cao';-inkscape-font-specification:'Liu Jian Mao Cao';letter-spacing:0px;word-spacing:0px;fill:#f6f6f6;fill-opacity:1;stroke:none;filter:url(#filter882)"
             xml:space="preserve"><tspan
               id="tspan1045"
               y="610.49786"
               x="320.75"><tspan
                 id="tspan1043"
                 y="610.49786"
                 x="320.75">Family</tspan></tspan></text>
          <text
             transform="matrix(0.2801847,-0.044722,0.044722,0.2801847,16.568847,-13.610755)"
             id="text1053"
             y="676.03955"
             x="181.5"
             style="font-style:normal;font-variant:normal;font-weight:normal;font-stretch:normal;font-size:37.33333206px;line-height:1.25;font-family:'Liu Jian Mao Cao';-inkscape-font-specification:'Liu Jian Mao Cao';letter-spacing:0px;word-spacing:0px;fill:#f6f6f6;fill-opacity:1;stroke:none;filter:url(#filter882)"
             xml:space="preserve"><tspan
               id="tspan1051"
               y="676.03955"
               x="181.5"><tspan
                 id="tspan1049"
                 y="676.03955"
                 x="181.5">Adventure</tspan></tspan></text>
        </g>
      </g>
    </g>
  </g>
</svg>
